<svg width="17" height="17" viewBox="0 0 17 17" fill="none" xmlns="http://www.w3.org/2000/svg">
<path d="M2.72505 5.89365V6.06059H2.89198H14.9112H15.0781V5.89365V5.14245C15.0781 4.76613 14.9286 4.40522 14.6625 4.13912C14.3964 3.87302 14.0355 3.72352 13.6592 3.72352H4.14398C3.76766 3.72352 3.40674 3.87302 3.14064 4.13912C2.87454 4.40522 2.72505 4.76613 2.72505 5.14245V5.89365ZM15.0781 6.89525V6.72832H14.9112H2.89198H2.72505V6.89525V11.6529C2.72505 12.0292 2.87454 12.3901 3.14064 12.6562C3.40674 12.9223 3.76766 13.0718 4.14398 13.0718H13.6592C14.0355 13.0718 14.3964 12.9223 14.6625 12.6562C14.9286 12.3901 15.0781 12.0292 15.0781 11.6529V6.89525ZM2.05731 5.14245C2.05731 4.58904 2.27716 4.05828 2.66848 3.66696C3.05981 3.27563 3.59056 3.05579 4.14398 3.05579H13.6592C14.2126 3.05579 14.7433 3.27563 15.1347 3.66696C15.526 4.05828 15.7458 4.58904 15.7458 5.14245V11.6529C15.7458 12.2063 15.526 12.737 15.1347 13.1283C14.7433 13.5197 14.2126 13.7395 13.6592 13.7395H4.14398C3.59056 13.7395 3.05981 13.5197 2.66848 13.1283C2.27716 12.737 2.05731 12.2063 2.05731 11.6529V5.14245ZM11.4056 10.067H12.908C12.9965 10.067 13.0814 10.1022 13.1441 10.1648C13.2067 10.2274 13.2418 10.3123 13.2418 10.4009C13.2418 10.4894 13.2067 10.5743 13.1441 10.6369C13.0814 10.6995 12.9965 10.7347 12.908 10.7347H11.4056C11.317 10.7347 11.2321 10.6995 11.1695 10.6369C11.1069 10.5743 11.0717 10.4894 11.0717 10.4009C11.0717 10.3123 11.1069 10.2274 11.1695 10.1648C11.2321 10.1022 11.317 10.067 11.4056 10.067Z" fill="#4CAF4F" stroke="#4CAF4F" stroke-width="0.333867"/>
</svg>
