<svg width="17" height="17" viewBox="0 0 17 17" fill="none" xmlns="http://www.w3.org/2000/svg">
<mask id="path-1-inside-1_25_2121" fill="white">
<path d="M10.3411 7.92435C10.2607 7.92435 10.1861 7.90225 10.1198 7.8667V7.86764C10.1198 7.99412 10.0706 8.1129 9.98141 8.20186C9.89221 8.29106 9.77352 8.34022 9.64718 8.34022C9.56561 8.34022 9.49002 8.31757 9.423 8.28107C9.41624 8.39678 9.36999 8.50493 9.28747 8.58753C9.19827 8.67673 9.07958 8.72589 8.95317 8.72589C8.702 8.72589 8.49804 8.52846 8.48334 8.281C8.40563 8.323 8.31776 8.34502 8.22714 8.3392C7.98007 8.323 7.78658 8.10952 7.78658 7.85309V5.72748L7.54454 6.1468C7.45235 6.30718 7.27978 6.40676 7.09398 6.40676C7.00345 6.40676 6.91401 6.38301 6.8348 6.33762C6.73617 6.28044 6.66561 6.18864 6.63627 6.07883C6.60677 5.96894 6.62203 5.85402 6.67906 5.75553C6.67914 5.75553 7.47099 4.38428 7.5193 4.30005C7.52504 4.28738 7.5414 4.25065 7.55532 4.21934C7.56862 4.18945 7.58002 4.15878 7.59095 4.12794C7.82975 3.45377 8.42104 3.03499 9.13416 3.03499C10.0602 3.03499 10.8136 3.85193 10.8136 4.8561L10.8137 7.4517C10.8137 7.57802 10.7646 7.69672 10.6755 7.786C10.5863 7.8752 10.4676 7.92436 10.3411 7.92436L10.3411 7.92435ZM9.13416 3.28611C8.52141 3.28611 8.03302 3.63221 7.82765 4.21192C7.81451 4.24874 7.80083 4.28555 7.78486 4.32142C7.73853 4.42532 7.73853 4.42532 7.72547 4.44027L7.72374 4.43877C7.65908 4.56077 7.467 4.89342 6.89649 5.88121C6.87305 5.92172 6.86684 5.96876 6.87879 6.01375C6.89091 6.05874 6.91993 6.09666 6.96013 6.11986C7.08488 6.19152 7.25573 6.14527 7.32683 6.02138L7.80342 5.19625C7.8319 5.14709 7.88948 5.12294 7.94469 5.13788C7.9996 5.15259 8.03775 5.20238 8.03775 5.25917V7.85316C8.03775 7.97555 8.13009 8.08118 8.2436 8.08866C8.30905 8.09212 8.37008 8.07017 8.41594 8.02439C8.45763 7.9827 8.4806 7.92717 8.4806 7.86778V6.17128C8.4806 6.10191 8.53684 6.04566 8.60622 6.04566C8.67559 6.04566 8.73183 6.10183 8.73183 6.17128L8.73176 8.2534C8.73176 8.37548 8.8311 8.47482 8.95318 8.47482C9.01248 8.47482 9.06817 8.45185 9.10994 8.41016C9.15163 8.3684 9.1746 8.31271 9.1746 8.2534V6.17128C9.1746 6.1019 9.23076 6.04566 9.30022 6.04566C9.36959 6.04566 9.42583 6.10183 9.42583 6.17128L9.42576 7.84827V7.86778C9.42576 7.98978 9.5251 8.08912 9.64726 8.08912C9.70649 8.08912 9.76202 8.06607 9.80402 8.02422C9.84571 7.98261 9.86868 7.92708 9.86868 7.86769V6.17119C9.86868 6.10182 9.92484 6.04558 9.9943 6.04558C10.0637 6.04558 10.1199 6.10174 10.1199 6.17119L10.1198 7.45175C10.1198 7.57391 10.2191 7.67326 10.3411 7.67326C10.4005 7.67326 10.456 7.65021 10.4977 7.6086C10.5396 7.56675 10.5624 7.51106 10.5624 7.45175L10.5625 4.85616C10.5625 3.99053 9.92178 3.28613 9.13416 3.28613L9.13416 3.28611Z"/>
</mask>
<path d="M10.3411 7.92435C10.2607 7.92435 10.1861 7.90225 10.1198 7.8667V7.86764C10.1198 7.99412 10.0706 8.1129 9.98141 8.20186C9.89221 8.29106 9.77352 8.34022 9.64718 8.34022C9.56561 8.34022 9.49002 8.31757 9.423 8.28107C9.41624 8.39678 9.36999 8.50493 9.28747 8.58753C9.19827 8.67673 9.07958 8.72589 8.95317 8.72589C8.702 8.72589 8.49804 8.52846 8.48334 8.281C8.40563 8.323 8.31776 8.34502 8.22714 8.3392C7.98007 8.323 7.78658 8.10952 7.78658 7.85309V5.72748L7.54454 6.1468C7.45235 6.30718 7.27978 6.40676 7.09398 6.40676C7.00345 6.40676 6.91401 6.38301 6.8348 6.33762C6.73617 6.28044 6.66561 6.18864 6.63627 6.07883C6.60677 5.96894 6.62203 5.85402 6.67906 5.75553C6.67914 5.75553 7.47099 4.38428 7.5193 4.30005C7.52504 4.28738 7.5414 4.25065 7.55532 4.21934C7.56862 4.18945 7.58002 4.15878 7.59095 4.12794C7.82975 3.45377 8.42104 3.03499 9.13416 3.03499C10.0602 3.03499 10.8136 3.85193 10.8136 4.8561L10.8137 7.4517C10.8137 7.57802 10.7646 7.69672 10.6755 7.786C10.5863 7.8752 10.4676 7.92436 10.3411 7.92436L10.3411 7.92435ZM9.13416 3.28611C8.52141 3.28611 8.03302 3.63221 7.82765 4.21192C7.81451 4.24874 7.80083 4.28555 7.78486 4.32142C7.73853 4.42532 7.73853 4.42532 7.72547 4.44027L7.72374 4.43877C7.65908 4.56077 7.467 4.89342 6.89649 5.88121C6.87305 5.92172 6.86684 5.96876 6.87879 6.01375C6.89091 6.05874 6.91993 6.09666 6.96013 6.11986C7.08488 6.19152 7.25573 6.14527 7.32683 6.02138L7.80342 5.19625C7.8319 5.14709 7.88948 5.12294 7.94469 5.13788C7.9996 5.15259 8.03775 5.20238 8.03775 5.25917V7.85316C8.03775 7.97555 8.13009 8.08118 8.2436 8.08866C8.30905 8.09212 8.37008 8.07017 8.41594 8.02439C8.45763 7.9827 8.4806 7.92717 8.4806 7.86778V6.17128C8.4806 6.10191 8.53684 6.04566 8.60622 6.04566C8.67559 6.04566 8.73183 6.10183 8.73183 6.17128L8.73176 8.2534C8.73176 8.37548 8.8311 8.47482 8.95318 8.47482C9.01248 8.47482 9.06817 8.45185 9.10994 8.41016C9.15163 8.3684 9.1746 8.31271 9.1746 8.2534V6.17128C9.1746 6.1019 9.23076 6.04566 9.30022 6.04566C9.36959 6.04566 9.42583 6.10183 9.42583 6.17128L9.42576 7.84827V7.86778C9.42576 7.98978 9.5251 8.08912 9.64726 8.08912C9.70649 8.08912 9.76202 8.06607 9.80402 8.02422C9.84571 7.98261 9.86868 7.92708 9.86868 7.86769V6.17119C9.86868 6.10182 9.92484 6.04558 9.9943 6.04558C10.0637 6.04558 10.1199 6.10174 10.1199 6.17119L10.1198 7.45175C10.1198 7.57391 10.2191 7.67326 10.3411 7.67326C10.4005 7.67326 10.456 7.65021 10.4977 7.6086C10.5396 7.56675 10.5624 7.51106 10.5624 7.45175L10.5625 4.85616C10.5625 3.99053 9.92178 3.28613 9.13416 3.28613L9.13416 3.28611Z" fill="#4CAF4F"/>
<path d="M10.3411 7.92435V7.4792H11.9139L10.5744 8.30347L10.3411 7.92435ZM10.1198 7.8667H9.67461V7.12289L10.3301 7.47438L10.1198 7.8667ZM9.98141 8.20186L9.66663 7.88709L9.66705 7.88668L9.98141 8.20186ZM9.423 8.28107L8.9786 8.25509L9.01956 7.55449L9.6359 7.89013L9.423 8.28107ZM9.28747 8.58753L9.60241 8.90214L9.60224 8.9023L9.28747 8.58753ZM8.48334 8.281L8.27168 7.88938L8.88629 7.5572L8.92771 8.2546L8.48334 8.281ZM8.22714 8.3392L8.19861 8.78344L8.19801 8.7834L8.22714 8.3392ZM7.78658 5.72748L7.40104 5.50494L8.23173 4.0658V5.72748H7.78658ZM7.54454 6.1468L7.15859 5.92496L7.159 5.92426L7.54454 6.1468ZM6.8348 6.33762L6.61348 6.72387L6.61154 6.72274L6.8348 6.33762ZM6.63627 6.07883L7.06621 5.96342L7.06634 5.96392L6.63627 6.07883ZM6.67906 5.75553L6.29382 5.53247L6.42242 5.31038H6.67906V5.75553ZM7.5193 4.30005L7.92472 4.48387L7.91598 4.50315L7.90545 4.52151L7.5193 4.30005ZM7.55532 4.21934L7.14858 4.03846L7.14858 4.03845L7.55532 4.21934ZM7.59095 4.12794L8.01056 4.27657L8.01052 4.27669L7.59095 4.12794ZM10.8136 4.8561L10.3684 4.85611V4.8561H10.8136ZM10.8137 7.4517L11.2588 7.45168V7.4517H10.8137ZM10.6755 7.786L10.9905 8.10048L10.9902 8.10077L10.6755 7.786ZM10.3411 7.92436V8.36952H8.76834L10.1078 7.54524L10.3411 7.92436ZM9.13416 3.28611V2.84095H9.72432L9.56219 3.4084L9.13416 3.28611ZM7.82765 4.21192L8.24725 4.36058L8.24691 4.36153L7.82765 4.21192ZM7.78486 4.32142L8.19153 4.50246L8.19143 4.5027L7.78486 4.32142ZM7.72547 4.44027L8.06069 4.73316L7.76948 5.06646L7.43451 4.77717L7.72547 4.44027ZM7.72374 4.43877L7.33041 4.23032L7.59197 3.73678L8.0147 4.10187L7.72374 4.43877ZM6.89649 5.88121L7.28197 6.10385L7.28179 6.10417L6.89649 5.88121ZM6.87879 6.01375L6.44894 6.12948L6.44857 6.12809L6.87879 6.01375ZM6.96013 6.11986L6.7384 6.50587L6.73757 6.50539L6.96013 6.11986ZM7.32683 6.02138L6.94075 5.79979L6.94136 5.79873L7.32683 6.02138ZM7.80342 5.19625L7.41795 4.9736L7.41822 4.97313L7.80342 5.19625ZM7.94469 5.13788L7.8295 5.56788L7.82839 5.56758L7.94469 5.13788ZM8.2436 8.08866L8.22009 8.53323L8.21437 8.53285L8.2436 8.08866ZM8.41594 8.02439L8.73071 8.33916L8.73044 8.33944L8.41594 8.02439ZM8.73183 6.17128H9.17699V6.1713L8.73183 6.17128ZM8.73176 8.2534H8.2866V8.25338L8.73176 8.2534ZM9.10994 8.41016L9.42501 8.72464L9.42441 8.72524L9.10994 8.41016ZM9.42583 6.17128H9.87099V6.1713L9.42583 6.17128ZM9.42576 7.84827H8.9806V7.84825L9.42576 7.84827ZM9.80402 8.02422L10.1185 8.33929L10.1182 8.33959L9.80402 8.02422ZM10.1199 6.17119H10.5651V6.17125L10.1199 6.17119ZM10.1198 7.45175H9.6746L9.6746 7.4517L10.1198 7.45175ZM10.4977 7.6086L10.8125 7.92337L10.8122 7.92367L10.4977 7.6086ZM10.5624 7.45175H10.1173V7.45174L10.5624 7.45175ZM10.5625 4.85616H11.0077V4.85617L10.5625 4.85616ZM9.13416 3.28613V3.73129H8.544L8.70613 3.16384L9.13416 3.28613ZM10.3411 8.36951C10.1772 8.36951 10.0309 8.32413 9.90941 8.25901L10.3301 7.47438C10.3359 7.47746 10.3395 7.47864 10.341 7.47903C10.3422 7.47937 10.3421 7.4792 10.3411 7.4792V8.36951ZM10.5649 7.8667V7.86764H9.67461V7.8667H10.5649ZM10.5649 7.86764C10.5649 8.11182 10.4691 8.34417 10.2958 8.51705L9.66705 7.88668C9.67023 7.8835 9.67181 7.88078 9.67273 7.87856C9.67365 7.87633 9.67461 7.8729 9.67461 7.86764H10.5649ZM10.2962 8.51664C10.1234 8.68939 9.89148 8.78538 9.64718 8.78538V7.89507C9.65229 7.89507 9.65565 7.89414 9.65793 7.8932C9.66021 7.89225 9.66316 7.89057 9.66663 7.88709L10.2962 8.51664ZM9.64718 8.78538C9.48113 8.78538 9.33296 8.73892 9.2101 8.67202L9.6359 7.89013C9.64169 7.89328 9.64537 7.89449 9.64683 7.89488C9.64807 7.89522 9.64797 7.89507 9.64718 7.89507V8.78538ZM9.8674 8.30705C9.85459 8.52617 9.7657 8.73867 9.60241 8.90214L8.97253 8.27292C8.97419 8.27127 8.97514 8.26981 8.97595 8.26797C8.97683 8.26597 8.97821 8.26189 8.9786 8.25509L9.8674 8.30705ZM9.60224 8.9023C9.42946 9.07509 9.1975 9.17105 8.95317 9.17105V8.28074C8.95835 8.28074 8.96174 8.2798 8.96401 8.27885C8.96629 8.27791 8.96923 8.27623 8.9727 8.27276L9.60224 8.9023ZM8.95317 9.17105C8.46171 9.17105 8.06736 8.78533 8.03897 8.30739L8.92771 8.2546C8.92816 8.26217 8.93126 8.26881 8.93674 8.27404C8.93941 8.27659 8.94213 8.27823 8.94448 8.27919C8.94655 8.28004 8.94919 8.28074 8.95317 8.28074V9.17105ZM8.695 8.67261C8.55121 8.75033 8.38072 8.79514 8.19861 8.78344L8.25568 7.89496C8.25569 7.89496 8.25664 7.89506 8.25899 7.89451C8.2615 7.89392 8.26585 7.89253 8.27168 7.88938L8.695 8.67261ZM8.19801 8.7834C7.70374 8.75099 7.34142 8.33065 7.34142 7.85309H8.23173C8.23173 7.86814 8.2372 7.87973 8.24405 7.88729C8.25072 7.89465 8.25526 7.89493 8.25627 7.895L8.19801 8.7834ZM7.34142 7.85309V5.72748H8.23173V7.85309H7.34142ZM8.17211 5.95002L7.93007 6.36934L7.159 5.92426L7.40104 5.50494L8.17211 5.95002ZM7.93048 6.36864C7.75847 6.66789 7.43829 6.85192 7.09398 6.85192V5.96161C7.12128 5.96161 7.14623 5.94647 7.15859 5.92496L7.93048 6.36864ZM7.09398 6.85192C6.92564 6.85192 6.75993 6.80777 6.61349 6.72386L7.05612 5.95138C7.06809 5.95824 7.08125 5.96161 7.09398 5.96161V6.85192ZM6.61154 6.72274C6.41168 6.60687 6.2662 6.41831 6.2062 6.19373L7.06634 5.96392C7.06593 5.9624 7.06482 5.95971 7.06268 5.95692C7.06055 5.95415 7.05858 5.9528 7.05807 5.9525L6.61154 6.72274ZM6.20633 6.19423C6.1461 5.96982 6.17763 5.73314 6.29382 5.53247L7.0643 5.9786C7.06493 5.9775 7.06604 5.97496 7.06652 5.97136C7.067 5.96776 7.0666 5.96488 7.06621 5.96342L6.20633 6.19423ZM6.67906 5.31038C6.4607 5.36762 6.29725 5.52666 6.29603 5.52871C6.29562 5.5294 6.29502 5.53043 6.29482 5.53076C6.29471 5.53095 6.29452 5.53127 6.29446 5.53138C6.29442 5.53145 6.29434 5.53159 6.29432 5.53162C6.29425 5.53173 6.29427 5.5317 6.29444 5.53141C6.29474 5.53089 6.29525 5.53001 6.29599 5.52873C6.29745 5.5262 6.29965 5.5224 6.30255 5.51738C6.30835 5.50735 6.31687 5.49261 6.32774 5.47379C6.34948 5.43614 6.3806 5.38227 6.4181 5.31734C6.49309 5.18748 6.59358 5.01345 6.69558 4.83679C6.89992 4.48288 7.10941 4.11996 7.13314 4.07858L7.90545 4.52151C7.88087 4.56437 7.67029 4.92919 7.4666 5.28196C7.36459 5.45864 7.26409 5.6327 7.18908 5.76258C7.15157 5.82752 7.12044 5.88143 7.09867 5.91911C7.08779 5.93795 7.07924 5.95275 7.07341 5.96285C7.07049 5.96789 7.06823 5.9718 7.06669 5.97446C7.06593 5.97578 7.0653 5.97687 7.06483 5.97767C7.06462 5.97804 7.06435 5.9785 7.0641 5.97894C7.064 5.97911 7.06372 5.9796 7.06337 5.98019C7.06316 5.98056 7.06253 5.98162 7.06211 5.98232C7.06088 5.9844 6.89743 6.14345 6.67906 6.20069V5.31038ZM7.11387 4.11622C7.11877 4.10541 7.1343 4.07057 7.14858 4.03846L7.96207 4.40023C7.94851 4.43073 7.93131 4.46935 7.92472 4.48387L7.11387 4.11622ZM7.14858 4.03845C7.15477 4.02454 7.16161 4.00676 7.17139 3.97919L8.01052 4.27669C7.99843 4.31079 7.98247 4.35437 7.96207 4.40024L7.14858 4.03845ZM7.17135 3.97931C7.47284 3.12813 8.23173 2.58984 9.13416 2.58984V3.48015C8.61036 3.48015 8.18666 3.77942 8.01056 4.27657L7.17135 3.97931ZM9.13416 2.58984C10.3393 2.58984 11.2587 3.64071 11.2587 4.8561H10.3684C10.3684 4.06315 9.78108 3.48015 9.13416 3.48015V2.58984ZM11.2587 4.85608L11.2588 7.45168L10.3685 7.45171L10.3684 4.85611L11.2587 4.85608ZM11.2588 7.4517C11.2588 7.69581 11.163 7.92764 10.9905 8.10048L10.3604 7.47152C10.3639 7.468 10.3656 7.465 10.3666 7.46266C10.3676 7.46032 10.3685 7.45688 10.3685 7.4517H11.2588ZM10.9902 8.10077C10.8174 8.27358 10.5855 8.36952 10.3411 8.36952V7.47921C10.3463 7.47921 10.3497 7.47826 10.352 7.47732C10.3543 7.47638 10.3572 7.4747 10.3607 7.47123L10.9902 8.10077ZM10.1078 7.54524L10.1078 7.54523L10.5744 8.30347L10.5744 8.30348L10.1078 7.54524ZM9.13416 3.73126C8.71092 3.73126 8.38998 3.95768 8.24725 4.36058L7.40804 4.06327C7.67606 3.30675 8.3319 2.84095 9.13416 2.84095V3.73126ZM8.24691 4.36153C8.23286 4.40091 8.2146 4.45064 8.19153 4.50246L7.37818 4.14037C7.38705 4.12045 7.39617 4.09656 7.40839 4.06231L8.24691 4.36153ZM8.19143 4.5027C8.17104 4.54842 8.15396 4.58703 8.1409 4.61318C8.13278 4.62941 8.11965 4.65443 8.10061 4.68214C8.08131 4.71022 8.06224 4.73139 8.06069 4.73316L7.39025 4.14737C7.39129 4.14617 7.39095 4.14656 7.39042 4.14718C7.38974 4.14797 7.38801 4.14998 7.38574 4.15275C7.38067 4.15893 7.37404 4.16745 7.36688 4.17787C7.35295 4.19813 7.34516 4.21385 7.34448 4.21523C7.34397 4.21624 7.34429 4.21564 7.3458 4.2124C7.34727 4.20927 7.34934 4.20475 7.35232 4.19817C7.3584 4.18473 7.36648 4.1666 7.37829 4.14014L8.19143 4.5027ZM7.43451 4.77717L7.43278 4.77568L8.0147 4.10187L8.01643 4.10336L7.43451 4.77717ZM8.11707 4.64723C8.0474 4.77869 7.8485 5.12294 7.28197 6.10385L6.51101 5.65857C7.0855 4.66389 7.27077 4.34286 7.33041 4.23032L8.11707 4.64723ZM7.28179 6.10417C7.31741 6.04261 7.32733 5.96835 7.30901 5.89941L6.44857 6.12809C6.40634 5.96917 6.42869 5.80083 6.5112 5.65825L7.28179 6.10417ZM7.30864 5.89802C7.29033 5.82999 7.2453 5.77048 7.18268 5.73433L6.73757 6.50539C6.59456 6.42283 6.49149 6.2875 6.44894 6.12948L7.30864 5.89802ZM7.18185 5.73385C7.13118 5.70475 7.0819 5.70494 7.04787 5.7141C7.01397 5.72323 6.9705 5.74795 6.94075 5.79979L7.71292 6.24297C7.51891 6.581 7.07553 6.69951 6.7384 6.50587L7.18185 5.73385ZM6.94136 5.79873L7.41795 4.9736L8.1889 5.41889L7.71231 6.24403L6.94136 5.79873ZM7.41822 4.97313C7.5468 4.75114 7.80924 4.64005 8.06099 4.70819L7.82839 5.56758C7.96971 5.60583 8.117 5.54303 8.18863 5.41936L7.41822 4.97313ZM8.05989 4.70789C8.30963 4.7748 8.4829 5.00111 8.4829 5.25917H7.59259C7.59259 5.40365 7.68957 5.53039 7.8295 5.56787L8.05989 4.70789ZM8.4829 5.25917V7.85316H7.59259V5.25917H8.4829ZM8.4829 7.85316C8.4829 7.80243 8.46411 7.75632 8.43326 7.72103C8.40246 7.68579 8.34811 7.64941 8.27284 7.64446L8.21437 8.53285C7.83963 8.50819 7.59259 8.18175 7.59259 7.85316H8.4829ZM8.26711 7.64412C8.21452 7.64134 8.15027 7.6606 8.10144 7.70934L8.73044 8.33944C8.5899 8.47974 8.40357 8.54289 8.22009 8.53319L8.26711 7.64412ZM8.10117 7.70962C8.05892 7.75187 8.03544 7.80975 8.03544 7.86778H8.92575C8.92575 8.04459 8.85634 8.21354 8.73071 8.33916L8.10117 7.70962ZM8.03544 7.86778V6.17128H8.92575V7.86778H8.03544ZM8.03544 6.17128C8.03544 5.85605 8.29099 5.60051 8.60622 5.60051V6.49082C8.78269 6.49082 8.92575 6.34776 8.92575 6.17128H8.03544ZM8.60622 5.60051C8.92127 5.60051 9.17699 5.8558 9.17699 6.17128H8.28668C8.28668 6.34786 8.42992 6.49082 8.60622 6.49082V5.60051ZM9.17699 6.1713L9.17691 8.25341L8.2866 8.25338L8.28668 6.17127L9.17699 6.1713ZM9.17691 8.2534C9.17691 8.12962 9.07695 8.02966 8.95318 8.02966V8.91997C8.58525 8.91997 8.2866 8.62133 8.2866 8.2534H9.17691ZM8.95318 8.02966C8.89524 8.02966 8.83764 8.05301 8.79548 8.09509L9.42441 8.72524C9.29871 8.85069 9.12973 8.91997 8.95318 8.91997V8.02966ZM8.79487 8.09569C8.75279 8.13785 8.72944 8.19546 8.72944 8.2534H9.61976C9.61976 8.42995 9.55048 8.59894 9.42501 8.72464L8.79487 8.09569ZM8.72944 8.2534V6.17128H9.61976V8.2534H8.72944ZM8.72944 6.17128C8.72944 5.85624 8.98472 5.60051 9.30022 5.60051V6.49082C9.4768 6.49082 9.61976 6.34757 9.61976 6.17128H8.72944ZM9.30022 5.60051C9.61526 5.60051 9.87099 5.85579 9.87099 6.17128H8.98068C8.98068 6.34786 9.12392 6.49082 9.30022 6.49082V5.60051ZM9.87099 6.1713L9.87091 7.84829L8.9806 7.84825L8.98068 6.17126L9.87099 6.1713ZM9.87091 7.84827V7.86778H8.9806V7.84827H9.87091ZM9.87091 7.86778C9.87091 7.74371 9.77074 7.64396 9.64726 7.64396V8.53427C9.27947 8.53427 8.9806 8.23585 8.9806 7.86778H9.87091ZM9.64726 7.64396C9.58811 7.64396 9.53084 7.66802 9.48984 7.70886L10.1182 8.33959C9.9932 8.46413 9.82487 8.53427 9.64726 8.53427V7.64396ZM9.48955 7.70915C9.44697 7.75166 9.42353 7.80973 9.42353 7.86769H10.3138C10.3138 8.04443 10.2445 8.21357 10.1185 8.33929L9.48955 7.70915ZM9.42353 7.86769V6.17119H10.3138V7.86769H9.42353ZM9.42353 6.17119C9.42353 5.85614 9.67881 5.60042 9.9943 5.60042V6.49073C10.1709 6.49073 10.3138 6.34749 10.3138 6.17119H9.42353ZM9.9943 5.60042C10.3093 5.60042 10.5651 5.8557 10.5651 6.17119H9.67476C9.67476 6.34777 9.818 6.49073 9.9943 6.49073V5.60042ZM10.5651 6.17125L10.5649 7.45181L9.6746 7.4517L9.67476 6.17114L10.5651 6.17125ZM10.5649 7.45175C10.5649 7.32827 10.4652 7.2281 10.3411 7.2281V8.11841C9.97304 8.11841 9.6746 7.81955 9.6746 7.45175H10.5649ZM10.3411 7.2281C10.2827 7.2281 10.2251 7.25174 10.1832 7.29353L10.8122 7.92367C10.6869 8.04868 10.5183 8.11841 10.3411 8.11841V7.2281ZM10.1829 7.29383C10.1405 7.33622 10.1173 7.39407 10.1173 7.45175H11.0076C11.0076 7.62806 10.9386 7.79729 10.8125 7.92337L10.1829 7.29383ZM10.1173 7.45174L10.1174 4.85614L11.0077 4.85617L11.0076 7.45177L10.1173 7.45174ZM10.1174 4.85616C10.1174 4.19581 9.63723 3.73129 9.13416 3.73129V2.84098C10.2063 2.84098 11.0077 3.78525 11.0077 4.85616H10.1174ZM8.70613 3.16384L8.70614 3.16381L9.56219 3.4084L9.56218 3.40843L8.70613 3.16384Z" fill="#4CAF4F" mask="url(#path-1-inside-1_25_2121)"/>
<mask id="path-3-inside-2_25_2121" fill="white">
<path d="M5.40569 9.72833L7.22851 8.63481C7.44828 8.50283 7.73105 8.55891 7.87201 8.76256C7.92345 8.83673 7.94973 8.92318 7.95381 9.0112C8.02178 8.97573 8.09571 8.95646 8.17099 8.95646C8.20953 8.95646 8.24823 8.96125 8.28646 8.97077C8.40893 9.00137 8.51213 9.0779 8.57703 9.18613C8.642 9.29452 8.66096 9.42155 8.63036 9.54388C8.60212 9.65707 8.53329 9.75233 8.43757 9.81769C8.5045 9.85718 8.56224 9.91106 8.6033 9.97965C8.66827 10.088 8.68723 10.215 8.65671 10.3375C8.62611 10.4598 8.54958 10.563 8.44119 10.628L8.44056 10.6284C8.50632 10.6678 8.56303 10.7212 8.60362 10.7887C8.66867 10.8971 8.68762 11.0242 8.65702 11.1466C8.62635 11.269 8.54981 11.3722 8.44158 11.4372L6.2159 12.7724C5.8005 13.0215 5.32028 13.1075 4.86391 13.0143C4.40345 12.9202 4.0221 12.6556 3.79023 12.269C3.42328 11.6575 3.47828 10.9349 3.93347 10.3834C3.95431 10.3582 3.97484 10.3326 3.99349 10.306C4.01323 10.2779 4.03628 10.2449 4.04414 10.2336C4.09126 10.1494 4.86007 8.76423 4.85999 8.76439C4.93763 8.6243 5.08315 8.545 5.23322 8.54508C5.30323 8.54508 5.37426 8.56231 5.43978 8.59865C5.51891 8.64286 5.58538 8.70728 5.63187 8.78491C5.72744 8.9442 5.73082 9.14352 5.64083 9.30484L5.40569 9.72833ZM5.41662 8.91405C5.39224 8.87338 5.35873 8.84097 5.31775 8.81801C5.23304 8.77113 5.12637 8.80165 5.07974 8.88605C4.52961 9.87714 4.34208 10.2149 4.2697 10.3351L4.27136 10.3355C4.2653 10.3556 4.2653 10.3556 4.19907 10.4502C4.17657 10.4823 4.15211 10.513 4.12718 10.5433C3.73576 11.0175 3.69032 11.6143 4.00549 12.1398C4.20072 12.4653 4.52338 12.6885 4.91407 12.7682C5.30901 12.8485 5.72527 12.7738 6.08656 12.557L8.31245 11.2217C8.36326 11.1913 8.39913 11.1429 8.41345 11.0856C8.42776 11.0283 8.41887 10.9688 8.38835 10.918C8.32559 10.8133 8.18927 10.779 8.08466 10.842L6.98659 11.5007C6.92713 11.5365 6.84988 11.5173 6.81425 11.4577C6.77854 11.3983 6.79781 11.3211 6.85728 11.2854L7.95542 10.6266L8.31206 10.4127C8.36287 10.3821 8.39882 10.3338 8.41313 10.2766C8.42745 10.2192 8.41856 10.1596 8.38804 10.1089C8.32519 10.0042 8.18888 9.97013 8.08434 10.0329L6.62956 10.9056C6.56994 10.9414 6.49293 10.9221 6.45722 10.8626C6.42151 10.8031 6.44086 10.726 6.50025 10.6902L8.28571 9.61917C8.33652 9.58865 8.37239 9.54035 8.38671 9.48301C8.40102 9.42575 8.39214 9.3662 8.36169 9.31539C8.33125 9.26466 8.28288 9.22879 8.22554 9.21447C8.16788 9.20016 8.10857 9.20905 8.05792 9.23941L7.7274 9.43771C7.72732 9.43771 7.72732 9.43778 7.72724 9.43778H7.72716L6.27246 10.3105C6.21284 10.3464 6.13575 10.327 6.10012 10.2675C6.06441 10.208 6.08376 10.1308 6.14314 10.0951L7.59793 9.22242C7.64874 9.1919 7.68469 9.14352 7.699 9.08634C7.71473 9.02357 7.70278 8.95939 7.66549 8.90558C7.60084 8.81206 7.46256 8.7872 7.35771 8.85021L5.13343 10.1846C5.08474 10.2137 5.02236 10.2066 4.98154 10.1672C4.94064 10.1277 4.93143 10.0656 4.95896 10.016L5.42148 9.1827C5.46789 9.0994 5.46608 8.99652 5.4166 8.91408L5.41662 8.91405Z"/>
</mask>
<path d="M5.40569 9.72833L7.22851 8.63481C7.44828 8.50283 7.73105 8.55891 7.87201 8.76256C7.92345 8.83673 7.94973 8.92318 7.95381 9.0112C8.02178 8.97573 8.09571 8.95646 8.17099 8.95646C8.20953 8.95646 8.24823 8.96125 8.28646 8.97077C8.40893 9.00137 8.51213 9.0779 8.57703 9.18613C8.642 9.29452 8.66096 9.42155 8.63036 9.54388C8.60212 9.65707 8.53329 9.75233 8.43757 9.81769C8.5045 9.85718 8.56224 9.91106 8.6033 9.97965C8.66827 10.088 8.68723 10.215 8.65671 10.3375C8.62611 10.4598 8.54958 10.563 8.44119 10.628L8.44056 10.6284C8.50632 10.6678 8.56303 10.7212 8.60362 10.7887C8.66867 10.8971 8.68762 11.0242 8.65702 11.1466C8.62635 11.269 8.54981 11.3722 8.44158 11.4372L6.2159 12.7724C5.8005 13.0215 5.32028 13.1075 4.86391 13.0143C4.40345 12.9202 4.0221 12.6556 3.79023 12.269C3.42328 11.6575 3.47828 10.9349 3.93347 10.3834C3.95431 10.3582 3.97484 10.3326 3.99349 10.306C4.01323 10.2779 4.03628 10.2449 4.04414 10.2336C4.09126 10.1494 4.86007 8.76423 4.85999 8.76439C4.93763 8.6243 5.08315 8.545 5.23322 8.54508C5.30323 8.54508 5.37426 8.56231 5.43978 8.59865C5.51891 8.64286 5.58538 8.70728 5.63187 8.78491C5.72744 8.9442 5.73082 9.14352 5.64083 9.30484L5.40569 9.72833ZM5.41662 8.91405C5.39224 8.87338 5.35873 8.84097 5.31775 8.81801C5.23304 8.77113 5.12637 8.80165 5.07974 8.88605C4.52961 9.87714 4.34208 10.2149 4.2697 10.3351L4.27136 10.3355C4.2653 10.3556 4.2653 10.3556 4.19907 10.4502C4.17657 10.4823 4.15211 10.513 4.12718 10.5433C3.73576 11.0175 3.69032 11.6143 4.00549 12.1398C4.20072 12.4653 4.52338 12.6885 4.91407 12.7682C5.30901 12.8485 5.72527 12.7738 6.08656 12.557L8.31245 11.2217C8.36326 11.1913 8.39913 11.1429 8.41345 11.0856C8.42776 11.0283 8.41887 10.9688 8.38835 10.918C8.32559 10.8133 8.18927 10.779 8.08466 10.842L6.98659 11.5007C6.92713 11.5365 6.84988 11.5173 6.81425 11.4577C6.77854 11.3983 6.79781 11.3211 6.85728 11.2854L7.95542 10.6266L8.31206 10.4127C8.36287 10.3821 8.39882 10.3338 8.41313 10.2766C8.42745 10.2192 8.41856 10.1596 8.38804 10.1089C8.32519 10.0042 8.18888 9.97013 8.08434 10.0329L6.62956 10.9056C6.56994 10.9414 6.49293 10.9221 6.45722 10.8626C6.42151 10.8031 6.44086 10.726 6.50025 10.6902L8.28571 9.61917C8.33652 9.58865 8.37239 9.54035 8.38671 9.48301C8.40102 9.42575 8.39214 9.3662 8.36169 9.31539C8.33125 9.26466 8.28288 9.22879 8.22554 9.21447C8.16788 9.20016 8.10857 9.20905 8.05792 9.23941L7.7274 9.43771C7.72732 9.43771 7.72732 9.43778 7.72724 9.43778H7.72716L6.27246 10.3105C6.21284 10.3464 6.13575 10.327 6.10012 10.2675C6.06441 10.208 6.08376 10.1308 6.14314 10.0951L7.59793 9.22242C7.64874 9.1919 7.68469 9.14352 7.699 9.08634C7.71473 9.02357 7.70278 8.95939 7.66549 8.90558C7.60084 8.81206 7.46256 8.7872 7.35771 8.85021L5.13343 10.1846C5.08474 10.2137 5.02236 10.2066 4.98154 10.1672C4.94064 10.1277 4.93143 10.0656 4.95896 10.016L5.42148 9.1827C5.46789 9.0994 5.46608 8.99652 5.4166 8.91408L5.41662 8.91405Z" fill="#4CAF4F"/>
<path d="M5.40569 9.72833L5.63469 10.1101L4.21 10.9647L5.0165 9.51223L5.40569 9.72833ZM7.22851 8.63481L7.4577 9.01644L7.45751 9.01655L7.22851 8.63481ZM7.87201 8.76256L7.50622 9.01625L7.50598 9.01591L7.87201 8.76256ZM7.95381 9.0112L8.1598 9.40583L7.54151 9.72857L7.50914 9.03186L7.95381 9.0112ZM8.28646 8.97077L8.394 8.5388L8.39436 8.53889L8.28646 8.97077ZM8.57703 9.18613L8.9588 8.9572L8.95884 8.95726L8.57703 9.18613ZM8.63036 9.54388L8.19844 9.43613L8.19851 9.43585L8.63036 9.54388ZM8.43757 9.81769L8.21139 10.2011L7.60794 9.84514L8.18655 9.45006L8.43757 9.81769ZM8.6033 9.97965L8.22149 10.2085L8.22135 10.2083L8.6033 9.97965ZM8.65671 10.3375L9.08865 10.4451L9.08856 10.4455L8.65671 10.3375ZM8.44119 10.628L8.20522 10.2505L8.21208 10.2464L8.44119 10.628ZM8.44056 10.6284L8.21173 11.0103L7.58788 10.6364L8.20463 10.2509L8.44056 10.6284ZM8.60362 10.7887L8.98521 10.5595L8.98531 10.5597L8.60362 10.7887ZM8.65702 11.1466L9.0889 11.2545L9.08882 11.2549L8.65702 11.1466ZM8.44158 11.4372L8.67073 11.8189L8.67059 11.8189L8.44158 11.4372ZM6.2159 12.7724L6.4449 13.1542L6.44484 13.1542L6.2159 12.7724ZM4.86391 13.0143L4.77483 13.4505L4.7748 13.4505L4.86391 13.0143ZM3.79023 12.269L4.17195 12.04L4.17197 12.04L3.79023 12.269ZM3.93347 10.3834L3.59016 10.1L3.59062 10.0995L3.93347 10.3834ZM3.99349 10.306L3.629 10.0505L3.62933 10.05L3.99349 10.306ZM4.04414 10.2336L4.43258 10.451L4.42206 10.4698L4.40979 10.4875L4.04414 10.2336ZM4.85999 8.76439L5.24935 8.98017L4.46183 8.56531L4.85999 8.76439ZM5.23322 8.54508V8.99024H5.23298L5.23322 8.54508ZM5.43978 8.59865L5.65569 8.20936L5.65689 8.21003L5.43978 8.59865ZM5.63187 8.78491L5.25015 9.01394L5.24994 9.0136L5.63187 8.78491ZM5.64083 9.30484L5.25165 9.08874L5.25207 9.08798L5.64083 9.30484ZM5.41662 8.91405L5.79841 8.68513L5.95281 8.94263L5.77191 9.18225L5.41662 8.91405ZM5.31775 8.81801L5.53329 8.42851L5.53538 8.42968L5.31775 8.81801ZM5.07974 8.88605L5.46936 9.10135L5.46895 9.10209L5.07974 8.88605ZM4.2697 10.3351L4.1666 10.7681L3.57426 10.6271L3.88834 10.1055L4.2697 10.3351ZM4.27136 10.3355L4.37446 9.90243L4.83359 10.0117L4.69765 10.4637L4.27136 10.3355ZM4.19907 10.4502L4.56377 10.7055L4.56329 10.7062L4.19907 10.4502ZM4.12718 10.5433L4.47083 10.8263L4.4705 10.8267L4.12718 10.5433ZM4.00549 12.1398L3.62374 12.3688L3.62373 12.3688L4.00549 12.1398ZM4.91407 12.7682L4.82537 13.2044L4.82503 13.2044L4.91407 12.7682ZM6.08656 12.557L5.85753 12.1753L5.85756 12.1753L6.08656 12.557ZM8.31245 11.2217L8.08345 10.84L8.08368 10.8399L8.31245 11.2217ZM8.41345 11.0856L7.98155 10.9778L7.98158 10.9776L8.41345 11.0856ZM8.38835 10.918L8.00674 11.1472L8.00664 11.147L8.38835 10.918ZM8.08466 10.842L8.31432 11.2233L8.31367 11.2237L8.08466 10.842ZM6.98659 11.5007L6.75741 11.1191L6.75758 11.119L6.98659 11.5007ZM6.81425 11.4577L7.19588 11.2285L7.19624 11.2291L6.81425 11.4577ZM6.85728 11.2854L6.6281 10.9037L6.62828 10.9036L6.85728 11.2854ZM7.95542 10.6266L8.18443 11.0083L8.18442 11.0083L7.95542 10.6266ZM8.31206 10.4127L8.54126 10.7943L8.54106 10.7944L8.31206 10.4127ZM8.41313 10.2766L8.84503 10.3844L8.84496 10.3847L8.41313 10.2766ZM8.38804 10.1089L8.00659 10.3384L8.00638 10.338L8.38804 10.1089ZM8.08434 10.0329L8.3135 10.4145L8.31334 10.4146L8.08434 10.0329ZM6.62956 10.9056L6.40046 10.5239L6.40056 10.5239L6.62956 10.9056ZM6.45722 10.8626L6.83885 10.6334L6.83885 10.6334L6.45722 10.8626ZM6.50025 10.6902L6.27085 10.3088L6.27125 10.3085L6.50025 10.6902ZM8.28571 9.61917L8.51491 10.0008L8.51471 10.0009L8.28571 9.61917ZM8.38671 9.48301L7.95481 9.37519L7.95484 9.37505L8.38671 9.48301ZM8.36169 9.31539L8.74341 9.08636L8.74357 9.08662L8.36169 9.31539ZM8.22554 9.21447L8.33281 8.78244L8.33336 8.78257L8.22554 9.21447ZM8.05792 9.23941L7.8289 8.85768L7.82906 8.85759L8.05792 9.23941ZM7.7274 9.43771L7.95641 9.81943L7.85069 9.88286H7.7274V9.43771ZM7.72716 9.43778L7.49815 9.05606L7.60387 8.99263H7.72716V9.43778ZM6.27246 10.3105L6.04299 9.92905L6.04345 9.92877L6.27246 10.3105ZM6.10012 10.2675L6.48175 10.0383L6.4821 10.0389L6.10012 10.2675ZM6.14314 10.0951L5.91374 9.71364L5.91414 9.7134L6.14314 10.0951ZM7.59793 9.22242L7.82713 9.60403L7.82693 9.60415L7.59793 9.22242ZM7.699 9.08634L7.26717 8.97824L7.2672 8.97812L7.699 9.08634ZM7.66549 8.90558L7.29961 9.15914L7.29932 9.15873L7.66549 8.90558ZM7.35771 8.85021L7.58699 9.23177L7.58671 9.23194L7.35771 8.85021ZM5.13343 10.1846L5.36243 10.5663L5.36182 10.5667L5.13343 10.1846ZM4.98154 10.1672L4.67237 10.4875L4.67236 10.4875L4.98154 10.1672ZM4.95896 10.016L4.56968 9.80008L4.56974 9.79998L4.95896 10.016ZM5.42148 9.1827L5.03226 8.96667L5.0326 8.96604L5.42148 9.1827ZM5.4166 8.91408L5.03491 9.14315L4.88034 8.8856L5.06131 8.64587L5.4166 8.91408ZM5.17669 9.34659L6.9995 8.25308L7.45751 9.01655L5.63469 10.1101L5.17669 9.34659ZM6.99932 8.25319C7.40879 8.00728 7.95601 8.10174 8.23804 8.50921L7.50598 9.01591C7.50545 9.01514 7.50292 9.0114 7.49316 9.00946C7.48314 9.00747 7.47046 9.00877 7.4577 9.01644L6.99932 8.25319ZM8.2378 8.50887C8.34185 8.65889 8.39094 8.82808 8.39849 8.99054L7.50914 9.03186C7.50851 9.01827 7.50505 9.01457 7.50622 9.01625L8.2378 8.50887ZM7.74782 8.61657C7.87472 8.55034 8.01891 8.5113 8.17099 8.5113V9.40161C8.17252 9.40161 8.16883 9.40112 8.1598 9.40583L7.74782 8.61657ZM8.17099 8.5113C8.24658 8.5113 8.32138 8.52072 8.394 8.5388L8.17891 9.40274C8.17507 9.40178 8.17248 9.40161 8.17099 9.40161V8.5113ZM8.39436 8.53889C8.63154 8.59815 8.83321 8.74776 8.9588 8.9572L8.19525 9.41507C8.19268 9.41078 8.1902 9.40841 8.18824 9.40695C8.18628 9.4055 8.18333 9.40384 8.17856 9.40265L8.39436 8.53889ZM8.95884 8.95726C9.0843 9.16656 9.12154 9.41472 9.06221 9.6519L8.19851 9.43585C8.19967 9.43119 8.19961 9.42787 8.19924 9.42543C8.19888 9.42298 8.19793 9.41953 8.19521 9.415L8.95884 8.95726ZM9.06228 9.65163C9.00633 9.87589 8.86989 10.0615 8.68859 10.1853L8.18655 9.45006C8.19217 9.44622 8.1949 9.44298 8.1961 9.44129C8.19719 9.43975 8.1979 9.43829 8.19844 9.43613L9.06228 9.65163ZM8.66374 9.43427C8.78705 9.50701 8.90168 9.6114 8.98525 9.75101L8.22135 10.2083C8.22181 10.2091 8.22193 10.209 8.22088 10.2079C8.21971 10.2068 8.21681 10.2043 8.21139 10.2011L8.66374 9.43427ZM8.98511 9.75078C9.1106 9.96012 9.14772 10.2081 9.08865 10.4451L8.22476 10.2298C8.22598 10.2249 8.2259 10.2215 8.22554 10.219C8.22517 10.2165 8.22421 10.2131 8.22149 10.2085L8.98511 9.75078ZM9.08856 10.4455C9.02924 10.6826 8.87958 10.8841 8.67029 11.0097L8.21208 10.2464C8.21661 10.2437 8.21908 10.2411 8.22058 10.239C8.22206 10.237 8.22369 10.2341 8.22486 10.2294L9.08856 10.4455ZM8.67712 11.0055L8.67649 11.0059L8.20463 10.2509L8.20525 10.2506L8.67712 11.0055ZM8.66938 10.2466C8.79047 10.3192 8.90282 10.4224 8.98521 10.5595L8.22202 11.018C8.22237 11.0186 8.22238 11.0183 8.22124 11.0172C8.22 11.016 8.21709 11.0135 8.21173 11.0103L8.66938 10.2466ZM8.98531 10.5597C9.11102 10.7691 9.14817 11.0173 9.0889 11.2545L8.22515 11.0387C8.22635 11.0339 8.22627 11.0305 8.22591 11.0281C8.22555 11.0257 8.22462 11.0223 8.22193 11.0178L8.98531 10.5597ZM9.08882 11.2549C9.02945 11.4918 8.87995 11.6932 8.67073 11.8189L8.21244 11.0555C8.21683 11.0529 8.21929 11.0504 8.22081 11.0483C8.22233 11.0463 8.22402 11.0432 8.22523 11.0384L9.08882 11.2549ZM8.67059 11.8189L6.4449 13.1542L5.98689 12.3907L8.21258 11.0555L8.67059 11.8189ZM6.44484 13.1542C5.93822 13.458 5.34505 13.5669 4.77483 13.4505L4.95299 12.5782C5.29552 12.6481 5.66278 12.5851 5.98695 12.3907L6.44484 13.1542ZM4.7748 13.4505C4.198 13.3326 3.70761 12.9966 3.40849 12.498L4.17197 12.04C4.3366 12.3145 4.6089 12.5079 4.95302 12.5782L4.7748 13.4505ZM3.40852 12.4981C2.94416 11.7241 3.01541 10.7964 3.59016 10.1L4.27678 10.6668C3.94114 11.0734 3.90241 11.5908 4.17195 12.04L3.40852 12.4981ZM3.59062 10.0995C3.60904 10.0772 3.62064 10.0624 3.629 10.0505L4.35797 10.5616C4.32905 10.6028 4.29959 10.6393 4.27632 10.6674L3.59062 10.0995ZM3.62933 10.05C3.64857 10.0226 3.67112 9.99029 3.6785 9.97967L4.40979 10.4875C4.40143 10.4995 4.37789 10.5333 4.35764 10.5621L3.62933 10.05ZM3.65571 10.0161C3.67876 9.97495 3.88208 9.6088 4.08057 9.25129C4.1796 9.0729 4.27716 8.89715 4.34996 8.766C4.38636 8.70042 4.41657 8.646 4.43768 8.60798C4.44823 8.58897 4.45651 8.57405 4.46215 8.56389C4.46497 8.55881 4.46713 8.55492 4.46859 8.55229C4.46932 8.55098 4.46987 8.54998 4.47025 8.5493C4.47044 8.54896 4.47059 8.54868 4.4707 8.54849C4.47075 8.54839 4.47081 8.54828 4.47087 8.54817C4.47091 8.54811 4.47099 8.54797 4.47104 8.54787C4.47119 8.5476 5.06812 8.37088 5.25815 8.96347L4.46183 8.56531C4.65187 9.1579 5.24879 8.98119 5.24893 8.98094C5.24897 8.98086 5.24903 8.98075 5.24904 8.98073C5.24906 8.98071 5.24905 8.98072 5.24901 8.98079C5.24893 8.98093 5.24881 8.98115 5.24863 8.98148C5.24827 8.98213 5.24772 8.98311 5.247 8.98441C5.24555 8.98702 5.24339 8.99091 5.24057 8.99599C5.23494 9.00614 5.22666 9.02105 5.21611 9.04006C5.195 9.07809 5.16479 9.13252 5.12839 9.19809C5.05558 9.32925 4.95801 9.50502 4.85896 9.68343C4.66128 10.0395 4.45664 10.408 4.43258 10.451L3.65571 10.0161ZM4.47063 8.54861C4.63 8.26104 4.92827 8.09976 5.23346 8.09993L5.23298 8.99024C5.23616 8.99024 5.2389 8.98949 5.24152 8.98798C5.24477 8.98611 5.24776 8.98305 5.24935 8.98017L4.47063 8.54861ZM5.23322 8.09993C5.37662 8.09993 5.52225 8.13535 5.65569 8.20936L5.22388 8.98794C5.22627 8.98927 5.22983 8.99024 5.23322 8.99024V8.09993ZM5.65689 8.21003C5.80378 8.29209 5.92717 8.41156 6.01379 8.55623L5.24994 9.0136C5.24359 9.00299 5.23405 8.99363 5.22268 8.98728L5.65689 8.21003ZM6.01359 8.55588C6.19066 8.85101 6.19768 9.22039 6.02959 9.5217L5.25207 9.08798C5.26396 9.06666 5.26421 9.03738 5.25015 9.01394L6.01359 8.55588ZM6.03002 9.52093L5.79488 9.94442L5.0165 9.51223L5.25165 9.08874L6.03002 9.52093ZM5.03484 9.14297C5.05049 9.16906 5.07366 9.19151 5.10012 9.20634L5.53538 8.42968C5.64381 8.49044 5.734 8.5777 5.79841 8.68513L5.03484 9.14297ZM5.10221 9.2075C5.23141 9.279 5.39633 9.23351 5.46936 9.10135L4.69011 8.67074C4.85642 8.36978 5.23466 8.26325 5.53329 8.42851L5.10221 9.2075ZM5.46895 9.10209C4.92253 10.0865 4.72878 10.4356 4.65107 10.5647L3.88834 10.1055C3.95537 9.99415 4.13668 9.66778 4.69052 8.67L5.46895 9.10209ZM4.37281 9.90204L4.37446 9.90243L4.16825 10.7685L4.1666 10.7681L4.37281 9.90204ZM4.69765 10.4637C4.69702 10.4658 4.68886 10.4946 4.67462 10.5271C4.66029 10.5599 4.64488 10.5856 4.63444 10.6022C4.61797 10.6283 4.59258 10.6643 4.56377 10.7055L3.83437 10.195C3.85127 10.1708 3.86274 10.1544 3.87117 10.1422C3.87529 10.1363 3.87804 10.1322 3.87989 10.1295C3.8818 10.1267 3.88195 10.1263 3.88112 10.1277C3.87971 10.1299 3.86958 10.146 3.85902 10.1701C3.85367 10.1823 3.8498 10.1929 3.84722 10.2006C3.84606 10.2041 3.84525 10.2067 3.84495 10.2076C3.84472 10.2084 3.84459 10.2089 3.84507 10.2073L4.69765 10.4637ZM4.56329 10.7062C4.53116 10.7519 4.49838 10.7928 4.47083 10.8263L3.78353 10.2603C3.80584 10.2332 3.82199 10.2126 3.83485 10.1943L4.56329 10.7062ZM4.4705 10.8267C4.19855 11.1561 4.16948 11.5478 4.38725 11.9109L3.62373 12.3688C3.21115 11.6809 3.27297 10.8789 3.78386 10.2599L4.4705 10.8267ZM4.38724 11.9108C4.51468 12.1233 4.72774 12.2758 5.00312 12.3321L4.82503 13.2044C4.31903 13.1011 3.88676 12.8073 3.62374 12.3688L4.38724 11.9108ZM5.00278 12.332C5.28368 12.3891 5.58712 12.3376 5.85753 12.1753L6.31559 12.9387C5.86342 13.2101 5.33434 13.3079 4.82537 13.2044L5.00278 12.332ZM5.85756 12.1753L8.08345 10.84L8.54145 11.6035L6.31556 12.9388L5.85756 12.1753ZM8.08368 10.8399C8.03325 10.8701 7.99591 10.9202 7.98155 10.9778L8.84535 11.1934C8.80235 11.3656 8.69328 11.5125 8.54122 11.6036L8.08368 10.8399ZM7.98158 10.9776C7.96716 11.0353 7.97661 11.097 8.00674 11.1472L8.76997 10.6888C8.86114 10.8405 8.88836 11.0213 8.84531 11.1935L7.98158 10.9776ZM8.00664 11.147C8.06982 11.2523 8.20694 11.288 8.31432 11.2233L7.85499 10.4606C8.1716 10.27 8.58135 10.3744 8.77007 10.6889L8.00664 11.147ZM8.31367 11.2237L7.2156 11.8825L6.75758 11.119L7.85564 10.4602L8.31367 11.2237ZM7.21577 11.8824C6.94607 12.0443 6.59474 11.9578 6.43227 11.6863L7.19624 11.2291C7.10503 11.0767 6.90818 11.0286 6.75742 11.1191L7.21577 11.8824ZM6.43262 11.6869C6.27031 11.4166 6.35792 11.066 6.6281 10.9037L7.08645 11.667C7.2377 11.5762 7.28678 11.3799 7.19588 11.2285L6.43262 11.6869ZM6.62828 10.9036L7.72642 10.2449L8.18442 11.0083L7.08628 11.6671L6.62828 10.9036ZM7.72642 10.2449L8.08305 10.0309L8.54106 10.7944L8.18443 11.0083L7.72642 10.2449ZM8.08286 10.031C8.03328 10.0608 7.99583 10.1104 7.9813 10.1685L8.84496 10.3847C8.80181 10.5571 8.69246 10.7035 8.54126 10.7943L8.08286 10.031ZM7.98124 10.1688C7.96693 10.226 7.97616 10.2878 8.00659 10.3384L8.7695 9.87941C8.86097 10.0315 8.88797 10.2124 8.84503 10.3844L7.98124 10.1688ZM8.00638 10.338C8.06992 10.4438 8.20699 10.4785 8.3135 10.4145L7.85519 9.65126C8.17077 9.46176 8.58047 9.56453 8.76971 9.87977L8.00638 10.338ZM8.31334 10.4146L6.85856 11.2874L6.40056 10.5239L7.85534 9.65116L8.31334 10.4146ZM6.85866 11.2873C6.58797 11.4498 6.23767 11.3617 6.07559 11.0918L6.83885 10.6334C6.74819 10.4824 6.55191 10.433 6.40046 10.5239L6.85866 11.2873ZM6.07559 11.0918C5.91307 10.8211 6.00134 10.4708 6.27085 10.3088L6.72965 11.0717C6.88039 10.9811 6.92995 10.7851 6.83885 10.6334L6.07559 11.0918ZM6.27125 10.3085L8.05671 9.23743L8.51471 10.0009L6.72925 11.072L6.27125 10.3085ZM8.05651 9.23756C8.00672 9.26746 7.96925 9.31733 7.95481 9.37519L8.81861 9.59083C8.77553 9.76337 8.66633 9.90984 8.51491 10.0008L8.05651 9.23756ZM7.95484 9.37505C7.94043 9.43269 7.94989 9.49421 7.97982 9.54416L8.74357 9.08662C8.83438 9.2382 8.86161 9.4188 8.81857 9.59098L7.95484 9.37505ZM7.97998 9.54442C8.01018 9.59476 8.06022 9.63202 8.11771 9.64637L8.33336 8.78257C8.50553 8.82556 8.65233 8.93455 8.74341 9.08636L7.97998 9.54442ZM8.11827 9.64651C8.17467 9.66052 8.23625 9.65151 8.28678 9.62123L7.82906 8.85759C7.98089 8.76658 8.16109 8.7398 8.33281 8.78244L8.11827 9.64651ZM8.28693 9.62113L7.95641 9.81943L7.49838 9.05598L7.8289 8.85768L8.28693 9.62113ZM7.7274 9.88286C7.746 9.88286 7.7656 9.88169 7.78596 9.87899C7.80637 9.87628 7.82692 9.87211 7.8474 9.86638C7.8679 9.86064 7.88747 9.85357 7.90603 9.84544C7.92455 9.83732 7.94133 9.82847 7.95638 9.81944C7.98622 9.80153 8.00826 9.78352 8.02185 9.77153C8.02864 9.76554 8.03394 9.76049 8.03713 9.7574C8.04004 9.75458 8.04249 9.75212 8.04208 9.75253C8.04208 9.75253 8.04208 9.75253 8.04207 9.75253C8.04207 9.75254 8.04206 9.75254 8.04206 9.75255C8.04205 9.75256 8.04203 9.75258 8.042 9.75261C8.04195 9.75266 8.04187 9.75274 8.04177 9.75284C8.04157 9.75303 8.04125 9.75336 8.04084 9.75376C8.04005 9.75454 8.03875 9.75583 8.03712 9.75741C8.03392 9.76051 8.02861 9.76557 8.02182 9.77156C8.00822 9.78356 7.98617 9.80158 7.95631 9.81949C7.94126 9.82852 7.92447 9.83738 7.90594 9.8455C7.88738 9.85364 7.8678 9.86071 7.84729 9.86645C7.8268 9.87219 7.80625 9.87636 7.78583 9.87907C7.76546 9.88177 7.74586 9.88294 7.72724 9.88294V8.99263C7.70863 8.99263 7.68903 8.9938 7.66867 8.9965C7.64826 8.99921 7.62772 9.00338 7.60723 9.00911C7.58674 9.01485 7.56717 9.02192 7.54861 9.03005C7.53008 9.03817 7.5133 9.04703 7.49826 9.05605C7.46842 9.07396 7.44638 9.09197 7.43279 9.10396C7.426 9.10995 7.4207 9.115 7.4175 9.11809C7.41459 9.12091 7.41214 9.12338 7.41255 9.12296C7.41255 9.12296 7.41256 9.12296 7.41256 9.12296C7.41256 9.12296 7.41257 9.12295 7.41257 9.12294C7.41259 9.12293 7.41261 9.12291 7.41263 9.12289C7.41268 9.12284 7.41276 9.12275 7.41286 9.12265C7.41306 9.12246 7.41339 9.12213 7.41379 9.12173C7.41458 9.12095 7.41589 9.11966 7.41752 9.11808C7.42072 9.11498 7.42602 9.10992 7.43282 9.10393C7.44642 9.09193 7.46847 9.07391 7.49832 9.056C7.51337 9.04697 7.53016 9.03811 7.54869 9.02999C7.56726 9.02185 7.58683 9.01478 7.60734 9.00904C7.62783 9.0033 7.64838 8.99913 7.6688 8.99642C7.68917 8.99372 7.70878 8.99255 7.7274 8.99255V9.88286ZM7.72724 9.88294H7.72716V8.99263H7.72724V9.88294ZM7.95617 9.81951L6.50147 10.6922L6.04345 9.92877L7.49815 9.05606L7.95617 9.81951ZM6.50193 10.692C6.23125 10.8548 5.88019 10.7669 5.71813 10.4961L6.4821 10.0389C6.39131 9.88717 6.19443 9.83795 6.04299 9.92905L6.50193 10.692ZM5.71849 10.4967C5.55597 10.226 5.64423 9.8757 5.91374 9.71364L6.37254 10.4766C6.52328 10.386 6.57284 10.19 6.48175 10.0383L5.71849 10.4967ZM5.91414 9.7134L7.36892 8.84068L7.82693 9.60415L6.37214 10.4769L5.91414 9.7134ZM7.36872 8.84081C7.31915 8.87058 7.2817 8.9202 7.26717 8.97824L8.13083 9.19444C8.08767 9.36685 7.97833 9.51322 7.82713 9.60403L7.36872 8.84081ZM7.2672 8.97812C7.25122 9.04189 7.26504 9.10926 7.29961 9.15914L8.03138 8.65203C8.14051 8.80951 8.17825 9.00525 8.1308 9.19456L7.2672 8.97812ZM7.29932 9.15873C7.34247 9.22115 7.40189 9.24905 7.44787 9.25732C7.49394 9.26561 7.54326 9.25805 7.58699 9.23177L7.12842 8.46864C7.41009 8.29939 7.81782 8.34311 8.03166 8.65244L7.29932 9.15873ZM7.58671 9.23194L5.36243 10.5663L4.90442 9.80284L7.1287 8.46847L7.58671 9.23194ZM5.36182 10.5667C5.14107 10.6986 4.8583 10.667 4.67237 10.4875L5.29071 9.84691C5.18642 9.74625 5.0284 9.72874 4.90504 9.80247L5.36182 10.5667ZM4.67236 10.4875C4.48626 10.3078 4.44451 10.0257 4.56968 9.80008L5.34824 10.2319C5.41835 10.1055 5.39501 9.94761 5.29072 9.84692L4.67236 10.4875ZM4.56974 9.79998L5.03226 8.96667L5.8107 9.39873L5.34818 10.232L4.56974 9.79998ZM5.0326 8.96604C5.00085 9.02303 5.00307 9.09011 5.03491 9.14315L5.79829 8.685C5.92908 8.90292 5.93492 9.17577 5.81035 9.39936L5.0326 8.96604ZM5.06131 8.64587L5.06134 8.64584L5.77191 9.18225L5.77189 9.18229L5.06131 8.64587Z" fill="#4CAF4F" mask="url(#path-3-inside-2_25_2121)"/>
<path d="M9.73079 8.98515C9.69605 8.98544 9.66112 8.98984 9.62667 8.99846L9.73079 8.98515ZM9.73079 8.98515C9.73144 8.97559 9.73228 8.96601 9.73331 8.95642L9.73079 8.98515ZM9.32716 9.99427C9.32715 9.99429 9.32713 9.99431 9.32712 9.99433C9.32712 9.99434 9.32712 9.99434 9.32712 9.99434L9.32716 9.99427ZM9.32716 9.99427L9.30266 9.97954L9.32718 9.99424M9.32716 9.99427L9.32718 9.99424M9.32718 9.99424C9.32771 9.99334 9.32825 9.99245 9.32879 9.99157L9.32718 9.99424ZM11.0337 11.3099L11.0338 11.31L11.0337 11.3099Z" fill="#4CAF4F" stroke="#4CAF4F" stroke-width="0.445155"/>
</svg>
