<svg width="38" height="35" viewBox="0 0 38 35" fill="none" xmlns="http://www.w3.org/2000/svg">
<rect x="0.893066" y="0.919373" width="33.4113" height="33.4113" rx="5.56856" fill="#F5F7FA"/>
<g clip-path="url(#clip0_25_1479)">
<path d="M9.48474 10.5577C8.07121 10.5577 6.71559 11.1192 5.71609 12.1187L2.4541 15.3807C1.45459 16.3802 0.893066 17.7358 0.893066 19.1494C0.893066 22.0929 3.27926 24.4791 6.22278 24.4791C7.63631 24.4791 8.99193 23.9175 9.99144 22.918L12.2478 20.6617C12.2478 20.6616 12.2478 20.6617 12.2478 20.6617L18.822 14.0875C19.2993 13.6101 19.9468 13.342 20.6219 13.342C21.7521 13.342 22.7103 14.0786 23.0425 15.0979L25.1173 13.0231C24.1708 11.5407 22.5111 10.5577 20.6219 10.5577C19.2083 10.5577 17.8527 11.1192 16.8532 12.1187L8.02267 20.9493C7.54531 21.4266 6.89787 21.6948 6.22278 21.6948C4.81697 21.6948 3.67734 20.5552 3.67734 19.1494C3.67734 18.4743 3.94552 17.8268 4.42288 17.3495L7.68485 14.0875C8.16221 13.6101 8.80965 13.342 9.48474 13.342C10.615 13.342 11.5732 14.0786 11.9054 15.098L13.9802 13.0232C13.0337 11.5407 11.3741 10.5577 9.48474 10.5577Z" fill="#394149"/>
<path d="M19.1598 20.9493C18.6824 21.4266 18.035 21.6948 17.3599 21.6948C16.2298 21.6948 15.2717 20.9583 14.9394 19.9392L12.8646 22.0139C13.8112 23.4962 15.4708 24.4791 17.3599 24.4791C18.7734 24.4791 20.129 23.9175 21.1285 22.918L29.9591 14.0875C30.4364 13.6101 31.0839 13.342 31.759 13.342C33.1648 13.342 34.3044 14.4816 34.3044 15.8874C34.3044 16.5625 34.0362 17.2099 33.5589 17.6873L30.2969 20.9493C29.8195 21.4266 29.1721 21.6948 28.497 21.6948C27.3668 21.6948 26.4087 20.9582 26.0764 19.9389L24.0016 22.0137C24.9482 23.4961 26.6078 24.4791 28.497 24.4791C29.9105 24.4791 31.2661 23.9175 32.2657 22.918L35.5276 19.656C36.5271 18.6565 37.0887 17.3009 37.0887 15.8874C37.0887 12.9439 34.7025 10.5577 31.759 10.5577C30.3454 10.5577 28.9898 11.1192 27.9903 12.1187L19.1598 20.9493Z" fill="#394149"/>
</g>
<defs>
<clipPath id="clip0_25_1479">
<rect width="36.1956" height="13.9214" fill="white" transform="translate(0.893066 10.5577)"/>
</clipPath>
</defs>
</svg>
